<svg xmlns="http://www.w3.org/2000/svg" xmlns:xlink="http://www.w3.org/1999/xlink" width="500" zoomAndPan="magnify" viewBox="0 0 375 374.999991" height="500" preserveAspectRatio="xMidYMid meet" version="1.0"><defs><clipPath id="427208c269"><path d="M 97.914062 91.535156 L 277.085938 91.535156 L 277.085938 270.710938 L 97.914062 270.710938 Z M 97.914062 91.535156 " clip-rule="nonzero"/></clipPath><clipPath id="90847a73e6"><path d="M 187.5 91.535156 C 138.023438 91.535156 97.914062 131.644531 97.914062 181.121094 C 97.914062 230.601562 138.023438 270.710938 187.5 270.710938 C 236.976562 270.710938 277.085938 230.601562 277.085938 181.121094 C 277.085938 131.644531 236.976562 91.535156 187.5 91.535156 Z M 187.5 91.535156 " clip-rule="nonzero"/></clipPath><clipPath id="aae0f97ca2"><path d="M 129 117.75 L 251 117.75 L 251 277.5 L 129 277.5 Z M 129 117.75 " clip-rule="nonzero"/></clipPath><clipPath id="9de1677059"><path d="M 236 147 L 259.613281 147 L 259.613281 161 L 236 161 Z M 236 147 " clip-rule="nonzero"/></clipPath><clipPath id="c9d16d807f"><path d="M 129 118 L 251 118 L 251 277.5 L 129 277.5 Z M 129 118 " clip-rule="nonzero"/></clipPath><clipPath id="e1364dbf30"><path d="M 116 124 L 259.613281 124 L 259.613281 221 L 116 221 Z M 116 124 " clip-rule="nonzero"/></clipPath></defs><g clip-path="url(#427208c269)"><g clip-path="url(#90847a73e6)"><path fill="#aa5464" d="M 97.914062 91.535156 L 277.085938 91.535156 L 277.085938 270.710938 L 97.914062 270.710938 Z M 97.914062 91.535156 " fill-opacity="1" fill-rule="nonzero"/></g></g><g clip-path="url(#aae0f97ca2)"><path fill="#fafbfa" d="M 245.671875 244.328125 C 242.347656 237.386719 239.28125 230.265625 235.992188 223.292969 C 233.144531 217.230469 230.878906 210.910156 227.886719 204.957031 C 231.609375 203.316406 235.300781 201.523438 238.804688 199.40625 C 240.558594 198.238281 242.640625 196.742188 242.75 194.402344 C 243.042969 191.628906 241.144531 189.363281 240.667969 186.734375 C 238.621094 181.585938 236.542969 176.398438 234.3125 171.324219 C 231.539062 165.296875 229.089844 159.125 226.207031 153.136719 C 225.039062 151.054688 223.90625 148.9375 222.335938 147.109375 C 220.875 145.429688 218.5 144.628906 216.308594 145.027344 C 212.585938 146.378906 208.824219 147.511719 205.132812 148.898438 C 204.550781 147.367188 203.964844 145.832031 203.453125 144.296875 C 201.519531 138.238281 199.21875 132.210938 195.859375 126.804688 C 194.070312 123.921875 192.425781 120.816406 189.613281 118.769531 C 188.410156 117.75 186.726562 117.96875 185.265625 117.96875 C 179.714844 118.261719 174.273438 119.574219 168.832031 120.597656 C 164.816406 121.328125 160.800781 122.203125 156.820312 123.226562 C 152.472656 124.101562 148.125 125.089844 143.78125 125.929688 C 140.421875 126.695312 137.132812 127.863281 134.175781 129.691406 C 134.101562 129.765625 133.992188 129.875 133.957031 129.945312 C 132.242188 131.078125 131.183594 132.867188 130.195312 134.65625 C 129.648438 135.644531 129.902344 136.8125 130.085938 137.871094 C 130.597656 140.097656 131.070312 142.363281 131.839844 144.519531 C 132.863281 147.511719 134.394531 150.289062 135.5625 153.246094 C 137.242188 157.519531 139.070312 161.71875 140.640625 166.027344 C 142.175781 170.191406 143.964844 174.246094 145.460938 178.40625 C 146.921875 182.460938 148.746094 186.371094 150.28125 190.386719 C 152.21875 195.574219 154.445312 200.648438 156.34375 205.835938 C 159.300781 213.320312 162.222656 220.808594 165.363281 228.222656 C 167.738281 234.429688 170.402344 240.492188 172.8125 246.699219 C 175.699219 254.113281 179.605469 261.089844 182.527344 268.503906 C 183.257812 270.621094 184.390625 272.59375 185.996094 274.164062 C 188.1875 276.390625 191.402344 277.121094 194.398438 277.304688 C 201.882812 277.816406 209.113281 275.441406 216.308594 273.90625 C 223.429688 272.921875 230.480469 271.316406 237.492188 269.746094 C 239.902344 269.125 242.347656 268.683594 244.683594 267.773438 C 246.621094 266.96875 248.519531 265.652344 249.324219 263.644531 C 250.566406 260.652344 250.199219 257.253906 249.394531 254.222656 C 248.519531 250.71875 246.875 247.578125 245.671875 244.328125 Z M 245.671875 244.328125 " fill-opacity="1" fill-rule="nonzero"/></g><path fill="#fafbfa" d="M 119.386719 130.273438 C 118.691406 129.835938 117.742188 129.691406 117.15625 130.382812 C 115.625 131.992188 115.625 135.277344 117.742188 136.375 C 120.296875 137.394531 123.585938 134.804688 122.78125 132.027344 C 122.378906 130.566406 120.738281 130.054688 119.386719 130.273438 Z M 119.386719 130.273438 " fill-opacity="1" fill-rule="nonzero"/><path fill="#fafbfa" d="M 216.382812 130.824219 C 219.011719 131.808594 221.859375 128.742188 221.09375 126.183594 C 220.691406 124.871094 219.085938 124.285156 217.84375 124.796875 C 217.003906 125.089844 215.945312 125.199219 215.46875 126.074219 C 214.484375 127.5 214.59375 130.019531 216.382812 130.824219 Z M 216.382812 130.824219 " fill-opacity="1" fill-rule="nonzero"/><path fill="#fafbfa" d="M 229.820312 148.71875 C 232.5625 147.878906 235.117188 146.5625 237.746094 145.394531 C 239.390625 144.699219 240.886719 143.714844 242.3125 142.617188 C 242.824219 142.289062 243.042969 141.742188 243.1875 141.195312 C 242.421875 141.15625 241.652344 141.304688 240.996094 141.667969 C 237.710938 143.421875 234.421875 145.101562 231.0625 146.671875 C 230.40625 147 229.675781 147.21875 229.164062 147.769531 C 228.652344 148.207031 229.273438 149.046875 229.820312 148.71875 Z M 229.820312 148.71875 " fill-opacity="1" fill-rule="nonzero"/><path fill="#fafbfa" d="M 223.941406 137.03125 C 225.183594 137.46875 227.339844 136.554688 226.828125 134.984375 C 226.316406 133.523438 224.488281 134.074219 223.394531 134.367188 C 222.480469 135.058594 222.847656 136.738281 223.941406 137.03125 Z M 223.941406 137.03125 " fill-opacity="1" fill-rule="nonzero"/><path fill="#fafbfa" d="M 134.46875 167.453125 C 134.652344 165.773438 133.226562 163.363281 131.253906 164.238281 C 129.683594 164.824219 128.152344 166.394531 128.515625 168.183594 C 128.769531 169.132812 129.867188 169.386719 130.632812 169.824219 C 132.277344 170.738281 134.46875 169.277344 134.46875 167.453125 Z M 134.46875 167.453125 " fill-opacity="1" fill-rule="nonzero"/><path fill="#fafbfa" d="M 231.027344 153.539062 C 230.769531 154.414062 231.792969 154.632812 232.378906 154.230469 C 234.203125 153.429688 235.992188 152.589844 237.671875 151.566406 C 238.183594 151.273438 238.476562 150.761719 238.625 150.214844 C 237.164062 149.996094 235.882812 150.871094 234.605469 151.421875 C 233.402344 152.039062 232.011719 152.480469 231.027344 153.539062 Z M 231.027344 153.539062 " fill-opacity="1" fill-rule="nonzero"/><g clip-path="url(#9de1677059)"><path fill="#fafbfa" d="M 255.898438 148.9375 C 250.125 151.859375 244.503906 155.035156 238.878906 158.25 C 238.074219 158.796875 236.980469 159.164062 236.613281 160.148438 C 236.90625 161.023438 237.78125 160.441406 238.332031 160.222656 C 244.285156 157.117188 250.238281 153.976562 255.933594 150.507812 C 257.136719 149.738281 258.597656 149.15625 259.367188 147.914062 C 258.125 147.839844 256.992188 148.390625 255.898438 148.9375 Z M 255.898438 148.9375 " fill-opacity="1" fill-rule="nonzero"/></g><path fill="#fafbfa" d="M 251.769531 185.019531 C 249.871094 185.820312 247.972656 186.699219 246.328125 187.902344 C 246 188.597656 246.730469 189.070312 247.351562 188.78125 C 249.03125 188.160156 250.601562 187.320312 252.136719 186.40625 C 252.609375 186.078125 253.339844 185.640625 252.9375 184.945312 C 252.648438 184.945312 252.0625 184.980469 251.769531 185.019531 Z M 251.769531 185.019531 " fill-opacity="1" fill-rule="nonzero"/><path fill="#fafbfa" d="M 254.21875 206.417969 C 253.488281 207.003906 253.304688 208.28125 254.109375 208.867188 C 255.128906 209.414062 256.847656 208.5 256.519531 207.222656 C 256.261719 206.164062 254.984375 206.566406 254.21875 206.417969 Z M 254.21875 206.417969 " fill-opacity="1" fill-rule="nonzero"/><path fill="#fafbfa" d="M 246 167.597656 C 244.757812 168.144531 243.480469 168.585938 242.421875 169.425781 C 241.765625 169.863281 242.238281 170.847656 242.96875 170.703125 C 244.320312 170.410156 245.488281 169.644531 246.695312 168.984375 C 247.207031 168.621094 247.972656 168.292969 247.972656 167.5625 C 247.351562 167.085938 246.621094 167.378906 246 167.597656 Z M 246 167.597656 " fill-opacity="1" fill-rule="nonzero"/><path fill="#fafbfa" d="M 138.339844 188.085938 C 137.390625 188.523438 136.148438 188.195312 135.417969 189.144531 C 132.605469 192.359375 132.605469 198.128906 136.257812 200.757812 C 137.9375 202.074219 140.347656 201.707031 141.953125 200.429688 C 145.386719 198.019531 145.898438 192.578125 143.160156 189.4375 C 141.992188 188.050781 140.019531 187.390625 138.339844 188.085938 Z M 138.339844 188.085938 " fill-opacity="1" fill-rule="nonzero"/><path fill="#fafbfa" d="M 245.488281 176.144531 C 244.285156 177.824219 244.683594 180.820312 246.804688 181.550781 C 248.59375 182.058594 250.636719 181.21875 251.769531 179.757812 C 253.265625 177.605469 250.710938 174.355469 248.265625 174.9375 C 247.277344 175.265625 246.074219 175.195312 245.488281 176.144531 Z M 245.488281 176.144531 " fill-opacity="1" fill-rule="nonzero"/><g clip-path="url(#c9d16d807f)"><path fill="#172f56" d="M 168.832031 120.671875 C 174.273438 119.648438 179.714844 118.371094 185.269531 118.039062 C 186.726562 118.039062 188.410156 117.820312 189.613281 118.84375 C 192.425781 120.890625 194.070312 123.992188 195.859375 126.878906 C 199.21875 132.320312 201.519531 138.308594 203.453125 144.371094 C 203.964844 145.90625 204.550781 147.4375 205.132812 148.972656 C 204.222656 149.300781 203.308594 149.628906 202.359375 149.960938 C 201.371094 146.527344 199.765625 143.3125 198.488281 139.988281 C 196.917969 135.9375 195.089844 131.992188 193.191406 128.082031 C 191.804688 125.492188 189.90625 123.117188 187.605469 121.253906 C 186.179688 120.050781 184.207031 120.453125 182.527344 120.742188 C 181.359375 121 180.046875 121.070312 179.023438 121.765625 C 178.144531 123.261719 179.972656 125.164062 178.804688 126.625 C 177.816406 127.683594 176.429688 128.339844 175.042969 128.667969 C 172.59375 129.214844 170.222656 130.019531 167.738281 130.457031 C 161.96875 131.734375 156.199219 133.671875 150.207031 133.5625 C 148.199219 133.671875 147.105469 131.882812 146.410156 130.273438 C 146.007812 128.921875 144.328125 129.214844 143.304688 129.542969 C 141.335938 130.128906 139.105469 130.640625 137.863281 132.429688 C 136.625 134.367188 136.988281 136.8125 137.425781 138.929688 C 138.011719 141.339844 138.886719 143.679688 139.945312 145.90625 C 141.1875 148.535156 142.027344 151.308594 143.195312 153.976562 C 146.046875 160.476562 148.566406 167.125 151.15625 173.695312 C 158.023438 189.472656 163.832031 205.6875 170.625 221.5 C 173.433594 227.929688 175.515625 234.613281 177.925781 241.1875 C 179.023438 244.289062 180.046875 247.46875 181.46875 250.460938 C 183.003906 253.710938 184.246094 257.144531 186.617188 259.921875 C 187.566406 261.015625 188.847656 261.929688 190.308594 262.039062 C 192.425781 262.367188 194.46875 261.671875 196.515625 261.382812 C 201.703125 260.796875 206.777344 259.554688 211.925781 258.898438 C 216.566406 258.132812 221.058594 256.597656 225.695312 255.976562 C 229.019531 255.355469 232.339844 254.625 235.664062 253.820312 C 238.257812 253.382812 240.960938 253.089844 243.261719 251.777344 C 244.464844 251.082031 244.941406 249.511719 244.539062 248.199219 C 243.808594 245.714844 242.75 243.375 241.582031 241.039062 C 240.304688 238.265625 239.28125 235.378906 237.964844 232.640625 C 236.25 229.207031 234.789062 225.664062 232.890625 222.339844 C 230.261719 216.9375 228.105469 211.3125 225.585938 205.871094 C 226.316406 205.578125 227.082031 205.285156 227.8125 204.996094 C 230.84375 210.949219 233.109375 217.265625 235.921875 223.328125 C 239.207031 230.304688 242.273438 237.386719 245.597656 244.363281 C 246.804688 247.613281 248.484375 250.753906 249.285156 254.148438 C 250.089844 257.21875 250.492188 260.578125 249.214844 263.574219 C 248.410156 265.582031 246.511719 266.894531 244.574219 267.699219 C 242.273438 268.613281 239.792969 269.085938 237.382812 269.671875 C 230.371094 271.203125 223.320312 272.847656 216.199219 273.835938 C 208.96875 275.367188 201.738281 277.777344 194.289062 277.230469 C 191.292969 277.046875 188.078125 276.316406 185.886719 274.089844 C 184.28125 272.519531 183.148438 270.546875 182.417969 268.429688 C 179.496094 261.015625 175.589844 254.039062 172.703125 246.628906 C 170.292969 240.457031 167.664062 234.355469 165.292969 228.148438 C 162.152344 220.734375 159.230469 213.25 156.269531 205.761719 C 154.371094 200.539062 152.144531 195.5 150.207031 190.3125 C 148.675781 186.296875 146.847656 182.390625 145.386719 178.335938 C 143.890625 174.171875 142.101562 170.117188 140.566406 165.953125 C 138.996094 161.644531 137.171875 157.445312 135.492188 153.171875 C 134.359375 150.214844 132.789062 147.4375 131.765625 144.445312 C 131 142.289062 130.523438 140.027344 130.011719 137.796875 C 129.792969 136.738281 129.574219 135.570312 130.121094 134.585938 C 131.070312 132.832031 132.167969 131.003906 133.882812 129.910156 C 133.261719 131.335938 133.007812 132.941406 133.226562 134.476562 C 133.847656 140.683594 136.660156 146.308594 138.8125 152.039062 C 142.90625 162.011719 146.628906 172.164062 151.085938 182.023438 C 153.898438 188.960938 156.820312 195.828125 159.667969 202.730469 C 160.980469 205.761719 161.929688 208.9375 163.246094 212.007812 C 165.839844 219.492188 168.613281 226.90625 171.753906 234.175781 C 174.382812 240.089844 176.683594 246.117188 179.097656 252.105469 C 180.007812 254.371094 181.214844 256.488281 182.164062 258.75 C 183.003906 260.722656 183.625 262.804688 184.71875 264.667969 C 186.109375 267.003906 187.128906 269.671875 189.359375 271.386719 C 191.511719 273.25 194.507812 274.054688 197.320312 273.542969 C 207.945312 271.824219 218.539062 269.671875 229.089844 267.664062 C 235.082031 266.238281 241.214844 265.070312 246.914062 262.660156 C 247.644531 262.292969 248.8125 262.222656 249.066406 261.273438 C 248.777344 260.394531 247.789062 260.980469 247.207031 261.125 C 242.273438 263.171875 237.015625 264.191406 231.832031 265.363281 C 227.996094 266.238281 224.125 266.785156 220.253906 267.554688 C 215.617188 268.429688 211.015625 269.523438 206.339844 270.253906 C 202.832031 270.949219 199.328125 271.644531 195.785156 271.933594 C 192.898438 272.15625 190.234375 270.402344 188.554688 268.136719 C 186.398438 265.105469 185.046875 261.636719 183.550781 258.242188 C 180.957031 252.652344 178.804688 246.882812 176.429688 241.1875 C 172.414062 231.652344 168.324219 222.085938 165.144531 212.226562 C 163.5 207.660156 161.820312 203.058594 159.738281 198.675781 C 155.140625 187.429688 150.316406 176.328125 145.972656 164.96875 C 144.765625 161.792969 143.488281 158.6875 142.210938 155.546875 C 139.691406 150.542969 137.863281 145.25 136.003906 139.953125 C 135.164062 136.886719 134.394531 133.597656 135.164062 130.421875 C 135.417969 129.726562 134.722656 129.363281 134.140625 129.617188 C 137.097656 127.792969 140.382812 126.621094 143.746094 125.929688 C 148.089844 125.089844 152.4375 124.101562 156.78125 123.226562 C 160.800781 122.277344 164.816406 121.402344 168.832031 120.671875 Z M 180.226562 202.804688 C 179.789062 202.183594 179.605469 200.648438 178.621094 200.976562 C 178.585938 201.746094 178.765625 202.511719 178.875 203.277344 C 178 203.679688 176.867188 203.789062 176.246094 204.628906 C 176.832031 205.6875 178.328125 204.664062 179.277344 204.59375 C 179.714844 206.089844 180.191406 207.550781 180.703125 208.976562 C 179.679688 209.449219 178.476562 209.707031 177.816406 210.691406 L 178 210.800781 C 179.058594 210.765625 180.082031 210.4375 181.066406 210.070312 C 181.394531 210.949219 181.835938 211.824219 182.566406 212.445312 C 182.710938 211.457031 182.601562 210.472656 182.417969 209.523438 C 183.988281 208.9375 185.558594 208.316406 187.167969 207.734375 C 187.53125 208.757812 187.605469 209.996094 188.480469 210.726562 C 189.832031 210.070312 188.773438 208.355469 188.589844 207.296875 C 189.210938 206.855469 190.710938 206.675781 190.378906 205.617188 C 189.613281 205.578125 188.882812 205.835938 188.152344 206.054688 C 187.679688 204.703125 187.238281 203.351562 186.910156 201.964844 C 187.53125 201.671875 188.1875 201.378906 188.738281 200.90625 C 188.371094 200.0625 187.3125 200.648438 186.617188 200.613281 C 186.289062 199.953125 186.21875 199.003906 185.523438 198.640625 C 184.390625 198.894531 185.046875 200.394531 185.046875 201.234375 C 183.441406 201.707031 181.835938 202.253906 180.226562 202.804688 Z M 185.558594 202.476562 C 185.960938 203.933594 186.328125 205.394531 186.839844 206.820312 C 185.269531 207.367188 183.695312 207.917969 182.164062 208.535156 C 181.617188 207.078125 181.140625 205.617188 180.628906 204.15625 C 182.273438 203.535156 183.917969 202.984375 185.558594 202.476562 Z M 185.558594 202.476562 " fill-opacity="1" fill-rule="nonzero"/></g><path fill="#f8d7d6" d="M 182.527344 120.742188 C 184.207031 120.453125 186.179688 120.085938 187.605469 121.253906 C 189.90625 123.117188 191.804688 125.492188 193.191406 128.082031 C 195.089844 131.992188 196.882812 135.9375 198.488281 139.988281 C 199.765625 143.3125 201.371094 146.527344 202.359375 149.960938 C 195.96875 152.222656 189.613281 154.597656 183.078125 156.460938 C 178.183594 157.847656 173.398438 159.527344 168.578125 161.0625 C 166.242188 161.902344 163.941406 162.921875 161.640625 163.910156 C 159.628906 164.75 157.769531 166.246094 156.855469 168.253906 C 156.160156 169.863281 156.417969 171.6875 157.039062 173.257812 C 158.898438 180.488281 161.96875 187.320312 165.144531 194.074219 C 166.570312 197.144531 167.519531 200.429688 168.796875 203.570312 C 170.441406 207.953125 172.449219 212.1875 174.566406 216.390625 C 175.226562 218.359375 176.464844 220.480469 178.695312 220.84375 C 182.636719 221.28125 186.507812 219.859375 190.234375 218.800781 C 195.859375 216.753906 201.519531 214.820312 207.105469 212.664062 C 211.746094 210.949219 216.527344 209.667969 221.09375 207.695312 C 222.589844 207.039062 224.125 206.457031 225.621094 205.90625 C 228.140625 211.386719 230.296875 217.007812 232.925781 222.378906 C 234.824219 225.703125 236.285156 229.242188 238.003906 232.675781 C 239.351562 235.414062 240.339844 238.300781 241.617188 241.078125 C 242.785156 243.375 243.84375 245.75 244.574219 248.234375 C 244.976562 249.546875 244.503906 251.121094 243.296875 251.8125 C 240.960938 253.128906 238.257812 253.417969 235.703125 253.859375 C 232.378906 254.660156 229.054688 255.390625 225.730469 256.011719 C 221.058594 256.632812 216.601562 258.167969 211.964844 258.933594 C 206.777344 259.554688 201.738281 260.832031 196.550781 261.417969 C 194.507812 261.710938 192.460938 262.367188 190.34375 262.074219 C 188.847656 262.003906 187.566406 261.050781 186.65625 259.957031 C 184.28125 257.21875 183.039062 253.75 181.507812 250.5 C 180.082031 247.503906 179.058594 244.363281 177.964844 241.222656 C 175.554688 234.648438 173.472656 227.929688 170.660156 221.539062 C 163.867188 205.726562 158.058594 189.511719 151.195312 173.734375 C 148.566406 167.125 146.082031 160.476562 143.234375 154.011719 C 142.066406 151.347656 141.261719 148.570312 139.984375 145.941406 C 138.925781 143.714844 138.046875 141.378906 137.464844 138.964844 C 136.988281 136.847656 136.660156 134.402344 137.902344 132.464844 C 139.144531 130.714844 141.40625 130.164062 143.34375 129.582031 C 144.367188 129.289062 146.046875 128.960938 146.445312 130.3125 C 147.105469 131.882812 148.199219 133.671875 150.207031 133.597656 C 156.199219 133.707031 161.96875 131.773438 167.738281 130.496094 C 170.222656 130.054688 172.59375 129.253906 175.042969 128.703125 C 176.429688 128.339844 177.816406 127.71875 178.804688 126.660156 C 180.007812 125.199219 178.144531 123.300781 179.023438 121.800781 C 180.046875 121.070312 181.359375 121 182.527344 120.742188 Z M 182.527344 120.742188 " fill-opacity="1" fill-rule="nonzero"/><g clip-path="url(#e1364dbf30)"><path fill="#f8bd74" d="M 217.84375 124.796875 C 219.085938 124.25 220.691406 124.832031 221.09375 126.183594 C 221.859375 128.777344 219.011719 131.808594 216.382812 130.824219 C 214.59375 130.019531 214.484375 127.5 215.46875 126.039062 C 215.945312 125.164062 217.003906 125.089844 217.84375 124.796875 Z M 117.742188 136.335938 C 120.261719 137.359375 123.585938 134.730469 122.78125 131.992188 C 122.378906 130.53125 120.738281 130.054688 119.386719 130.238281 C 118.691406 129.835938 117.742188 129.691406 117.15625 130.382812 C 115.625 131.992188 115.625 135.242188 117.742188 136.335938 Z M 223.941406 137.03125 C 225.183594 137.46875 227.339844 136.554688 226.828125 134.984375 C 226.316406 133.523438 224.488281 134.074219 223.394531 134.367188 C 222.480469 135.058594 222.847656 136.738281 223.941406 137.03125 Z M 231.027344 146.671875 C 230.371094 147 229.640625 147.21875 229.128906 147.769531 C 228.652344 148.207031 229.273438 149.007812 229.820312 148.71875 C 232.5625 147.878906 235.117188 146.5625 237.746094 145.394531 C 239.390625 144.699219 240.886719 143.714844 242.3125 142.617188 C 242.785156 142.289062 243.042969 141.742188 243.1875 141.195312 C 242.421875 141.15625 241.652344 141.304688 240.996094 141.667969 C 237.710938 143.457031 234.421875 145.136719 231.027344 146.671875 Z M 202.359375 149.960938 C 195.96875 152.222656 189.613281 154.597656 183.078125 156.460938 C 178.183594 157.847656 173.398438 159.527344 168.578125 161.0625 C 166.242188 161.902344 163.941406 162.921875 161.640625 163.910156 C 159.628906 164.75 157.769531 166.246094 156.855469 168.253906 C 156.160156 169.863281 156.417969 171.6875 157.039062 173.257812 C 158.898438 180.488281 161.96875 187.320312 165.144531 194.074219 C 166.570312 197.144531 167.519531 200.429688 168.796875 203.570312 C 170.441406 207.953125 172.449219 212.1875 174.566406 216.390625 C 175.226562 218.359375 176.464844 220.480469 178.695312 220.84375 C 182.636719 221.28125 186.507812 219.859375 190.234375 218.800781 C 195.859375 216.753906 201.519531 214.820312 207.105469 212.664062 C 211.746094 210.949219 216.527344 209.667969 221.09375 207.695312 C 222.589844 207.039062 224.125 206.457031 225.621094 205.90625 C 226.351562 205.617188 227.121094 205.324219 227.851562 205.03125 C 231.574219 203.386719 235.261719 201.597656 238.769531 199.480469 C 240.523438 198.3125 242.605469 196.8125 242.714844 194.476562 C 243.003906 191.703125 241.105469 189.4375 240.667969 186.808594 C 238.621094 181.660156 236.542969 176.472656 234.277344 171.394531 C 231.5 165.371094 229.054688 159.199219 226.167969 153.210938 C 225 151.128906 223.867188 149.007812 222.296875 147.183594 C 220.835938 145.503906 218.464844 144.699219 216.273438 145.101562 C 212.546875 146.453125 208.785156 147.585938 205.097656 148.972656 C 204.222656 149.300781 203.273438 149.628906 202.359375 149.960938 Z M 225.585938 171.324219 C 225.328125 172.347656 224.378906 172.746094 223.503906 173.1875 C 217.660156 175.777344 211.855469 178.519531 206.082031 181.292969 C 204.734375 181.878906 203.453125 182.609375 201.992188 182.863281 C 201.480469 182.789062 201.300781 182.390625 201.519531 181.914062 C 202.796875 181 204.292969 180.453125 205.683594 179.757812 C 211.085938 177.019531 216.675781 174.71875 222.117188 172.054688 C 223.210938 171.617188 224.378906 170.957031 225.585938 171.324219 Z M 230.152344 177.347656 C 230.261719 178.371094 229.089844 178.773438 228.359375 179.136719 C 226.132812 180.015625 223.941406 180.964844 221.789062 181.988281 C 217.003906 184.214844 212.035156 186.113281 207.179688 188.195312 C 204.695312 189.21875 202.285156 190.421875 199.730469 191.335938 C 199.183594 191.445312 198.5625 191.882812 198.011719 191.519531 C 197.539062 190.863281 198.453125 190.421875 198.890625 190.132812 C 205.535156 186.699219 212.476562 183.960938 219.304688 180.964844 C 222.226562 179.648438 225.183594 178.40625 228.105469 177.09375 C 228.761719 176.875 229.710938 176.617188 230.152344 177.347656 Z M 235.773438 187.101562 C 235.410156 188.5625 233.839844 189.035156 232.632812 189.582031 C 232.011719 189.765625 231.136719 190.277344 230.589844 189.65625 C 230.222656 188.816406 231.210938 188.378906 231.757812 188.011719 C 233 187.429688 234.386719 186.441406 235.773438 187.101562 Z M 226.972656 191.480469 C 226.828125 192.359375 225.804688 192.6875 225.109375 193.015625 C 221.898438 194.257812 218.828125 195.753906 215.652344 197.070312 C 209.664062 199.480469 203.820312 202.402344 197.539062 204.082031 C 196.917969 204.335938 196.003906 204.046875 196.261719 203.242188 C 196.953125 202.621094 197.902344 202.363281 198.742188 202 C 201.445312 200.976562 204.183594 200.027344 206.8125 198.824219 C 211.234375 196.851562 215.796875 195.171875 220.179688 193.125 C 221.859375 192.394531 223.46875 191.519531 225.183594 190.898438 C 225.804688 190.714844 226.898438 190.605469 226.972656 191.480469 Z M 186.691406 196.921875 C 188.554688 197.726562 189.140625 199.808594 189.757812 201.5625 C 190.671875 204.007812 192.023438 206.636719 191.292969 209.304688 C 190.015625 211.203125 187.714844 212.078125 185.667969 212.773438 C 183.917969 213.285156 182.089844 214.050781 180.226562 213.6875 C 178.949219 213.394531 178.4375 212.078125 177.746094 211.167969 C 177.816406 211.09375 177.964844 210.910156 178.035156 210.835938 L 177.855469 210.726562 C 176.648438 207.804688 175.078125 204.664062 175.734375 201.414062 C 176.613281 199.1875 179.167969 198.675781 181.175781 197.945312 C 182.96875 197.398438 184.828125 196.375 186.691406 196.921875 Z M 238.878906 158.25 C 238.074219 158.796875 236.980469 159.164062 236.613281 160.148438 C 236.90625 161.023438 237.78125 160.441406 238.332031 160.222656 C 244.285156 157.152344 250.238281 153.976562 255.933594 150.507812 C 257.136719 149.738281 258.597656 149.15625 259.367188 147.914062 C 258.125 147.878906 256.957031 148.425781 255.859375 148.972656 C 250.125 151.859375 244.503906 155.035156 238.878906 158.25 Z M 231.027344 153.539062 C 230.769531 154.414062 231.792969 154.632812 232.378906 154.230469 C 234.203125 153.429688 235.992188 152.589844 237.671875 151.566406 C 238.183594 151.273438 238.476562 150.761719 238.660156 150.214844 C 237.199219 149.996094 235.921875 150.871094 234.640625 151.421875 C 233.402344 152.039062 232.011719 152.480469 231.027344 153.539062 Z M 128.515625 168.144531 C 128.769531 169.09375 129.867188 169.351562 130.632812 169.789062 C 132.277344 170.738281 134.46875 169.242188 134.46875 167.414062 C 134.652344 165.734375 133.226562 163.324219 131.253906 164.203125 C 129.683594 164.785156 128.1875 166.394531 128.515625 168.144531 Z M 242.421875 169.425781 C 241.765625 169.863281 242.238281 170.847656 242.96875 170.703125 C 244.320312 170.410156 245.488281 169.644531 246.695312 168.984375 C 247.207031 168.621094 247.972656 168.292969 247.972656 167.5625 C 247.386719 167.125 246.621094 167.414062 246.035156 167.636719 C 244.792969 168.109375 243.480469 168.585938 242.421875 169.425781 Z M 245.488281 176.144531 C 244.285156 177.824219 244.683594 180.820312 246.804688 181.550781 C 248.59375 182.058594 250.636719 181.183594 251.769531 179.757812 C 253.265625 177.605469 250.710938 174.355469 248.265625 174.9375 C 247.277344 175.265625 246.074219 175.195312 245.488281 176.144531 Z M 246.292969 187.902344 C 245.964844 188.597656 246.695312 189.070312 247.316406 188.78125 C 248.996094 188.160156 250.566406 187.320312 252.097656 186.40625 C 252.574219 186.078125 253.304688 185.601562 252.902344 184.945312 C 252.609375 184.980469 252.027344 185.019531 251.734375 185.054688 C 249.871094 185.785156 247.972656 186.699219 246.292969 187.902344 Z M 135.417969 189.109375 C 132.605469 192.320312 132.605469 198.09375 136.257812 200.722656 C 137.9375 202.035156 140.347656 201.671875 141.953125 200.394531 C 145.386719 197.984375 145.898438 192.542969 143.160156 189.402344 C 141.992188 188.050781 140.019531 187.390625 138.304688 188.050781 C 137.355469 188.488281 136.113281 188.195312 135.417969 189.109375 Z M 256.519531 207.1875 C 256.261719 206.125 254.984375 206.566406 254.179688 206.382812 C 253.449219 206.964844 253.265625 208.246094 254.070312 208.828125 C 255.128906 209.378906 256.847656 208.5 256.519531 207.1875 Z M 256.519531 207.1875 " fill-opacity="1" fill-rule="nonzero"/></g><path fill="#fafbfa" d="M 134.175781 129.691406 C 134.722656 129.472656 135.453125 129.835938 135.199219 130.496094 C 134.433594 133.671875 135.164062 136.957031 136.039062 140.027344 C 137.902344 145.285156 139.726562 150.617188 142.246094 155.621094 C 143.527344 158.761719 144.839844 161.863281 146.007812 165.042969 C 150.355469 176.398438 155.175781 187.5 159.777344 198.75 C 161.859375 203.167969 163.539062 207.734375 165.183594 212.296875 C 168.359375 222.160156 172.449219 231.691406 176.464844 241.257812 C 178.804688 246.957031 180.996094 252.726562 183.585938 258.3125 C 185.085938 261.710938 186.4375 265.179688 188.589844 268.210938 C 190.269531 270.4375 192.9375 272.226562 195.820312 272.007812 C 199.363281 271.714844 202.871094 271.023438 206.375 270.328125 C 211.050781 269.5625 215.617188 268.464844 220.289062 267.625 C 224.125 266.859375 228.03125 266.3125 231.867188 265.433594 C 237.050781 264.265625 242.3125 263.242188 247.242188 261.199219 C 247.824219 261.050781 248.847656 260.46875 249.105469 261.34375 C 248.886719 262.292969 247.714844 262.367188 246.949219 262.734375 C 241.253906 265.144531 235.117188 266.3125 229.128906 267.734375 C 218.539062 269.746094 207.984375 271.898438 197.355469 273.617188 C 194.542969 274.125 191.550781 273.324219 189.394531 271.460938 C 187.167969 269.78125 186.144531 267.078125 184.757812 264.742188 C 183.625 262.878906 183.039062 260.796875 182.199219 258.824219 C 181.25 256.597656 180.046875 254.441406 179.132812 252.179688 C 176.683594 246.1875 174.421875 240.125 171.792969 234.246094 C 168.652344 226.980469 165.875 219.566406 163.28125 212.078125 C 161.96875 209.046875 161.019531 205.871094 159.703125 202.804688 C 156.820312 195.902344 153.933594 189.035156 151.121094 182.097656 C 146.667969 172.234375 142.976562 162.121094 138.851562 152.113281 C 136.695312 146.34375 133.882812 140.71875 133.261719 134.546875 C 133.082031 133.015625 133.335938 131.40625 133.921875 129.984375 C 134.03125 129.875 134.140625 129.765625 134.175781 129.691406 Z M 205.683594 179.796875 C 204.292969 180.488281 202.796875 181.039062 201.519531 181.949219 C 201.300781 182.390625 201.480469 182.828125 201.992188 182.898438 C 203.453125 182.609375 204.769531 181.914062 206.082031 181.328125 C 211.855469 178.554688 217.660156 175.816406 223.503906 173.222656 C 224.34375 172.820312 225.328125 172.382812 225.585938 171.359375 C 224.378906 170.996094 223.210938 171.652344 222.117188 172.125 C 216.675781 174.757812 211.085938 177.058594 205.683594 179.796875 Z M 219.304688 181 C 212.476562 183.996094 205.535156 186.769531 198.890625 190.167969 C 198.453125 190.421875 197.539062 190.863281 198.011719 191.554688 C 198.5625 191.921875 199.183594 191.480469 199.730469 191.371094 C 202.25 190.421875 204.695312 189.253906 207.179688 188.230469 C 212.035156 186.148438 217.003906 184.25 221.789062 182.023438 C 223.941406 181 226.132812 180.050781 228.359375 179.175781 C 229.089844 178.808594 230.261719 178.40625 230.152344 177.386719 C 229.710938 176.65625 228.761719 176.910156 228.105469 177.167969 C 225.183594 178.40625 222.226562 179.648438 219.304688 181 Z M 230.589844 189.65625 C 231.136719 190.277344 231.976562 189.765625 232.632812 189.582031 C 233.839844 189.035156 235.410156 188.5625 235.773438 187.101562 C 234.386719 186.441406 233 187.429688 231.792969 188.011719 C 231.210938 188.378906 230.222656 188.816406 230.589844 189.65625 Z M 220.179688 193.164062 C 215.796875 195.207031 211.234375 196.886719 206.8125 198.859375 C 204.183594 200.0625 201.445312 201.015625 198.742188 202.035156 C 197.902344 202.402344 196.953125 202.621094 196.261719 203.277344 C 195.96875 204.117188 196.917969 204.375 197.539062 204.117188 C 203.820312 202.4375 209.664062 199.554688 215.652344 197.105469 C 218.828125 195.792969 221.898438 194.257812 225.109375 193.050781 C 225.804688 192.722656 226.828125 192.394531 226.972656 191.519531 C 226.898438 190.640625 225.769531 190.714844 225.183594 190.972656 C 223.46875 191.554688 221.859375 192.433594 220.179688 193.164062 Z M 175.734375 201.414062 C 175.078125 204.664062 176.648438 207.804688 177.855469 210.726562 C 178.511719 209.742188 179.714844 209.449219 180.738281 209.011719 C 180.191406 207.550781 179.714844 206.089844 179.316406 204.628906 C 178.367188 204.703125 176.90625 205.726562 176.285156 204.664062 C 176.90625 203.863281 178.035156 203.753906 178.914062 203.316406 C 178.765625 202.546875 178.621094 201.78125 178.65625 201.015625 C 179.644531 200.683594 179.824219 202.21875 180.265625 202.839844 C 181.871094 202.253906 183.515625 201.746094 185.15625 201.304688 C 185.195312 200.503906 184.5 199.003906 185.632812 198.714844 C 186.328125 199.078125 186.398438 200.027344 186.726562 200.683594 C 187.386719 200.722656 188.480469 200.136719 188.847656 200.976562 C 188.335938 201.453125 187.679688 201.746094 187.019531 202.035156 C 187.386719 203.425781 187.824219 204.777344 188.261719 206.125 C 188.992188 205.90625 189.722656 205.6875 190.488281 205.6875 C 190.820312 206.746094 189.320312 206.929688 188.699219 207.367188 C 188.847656 208.425781 189.90625 210.144531 188.589844 210.800781 C 187.679688 210.070312 187.640625 208.828125 187.277344 207.804688 C 185.707031 208.390625 184.097656 208.976562 182.527344 209.597656 C 182.710938 210.546875 182.820312 211.53125 182.675781 212.519531 C 181.945312 211.898438 181.507812 211.019531 181.175781 210.144531 C 180.191406 210.472656 179.167969 210.800781 178.109375 210.875 C 178.035156 210.949219 177.890625 211.128906 177.816406 211.203125 C 178.546875 212.117188 179.058594 213.429688 180.300781 213.722656 C 182.164062 214.089844 183.988281 213.320312 185.742188 212.808594 C 187.824219 212.078125 190.089844 211.203125 191.367188 209.339844 C 192.097656 206.675781 190.710938 204.046875 189.832031 201.597656 C 189.210938 199.84375 188.589844 197.761719 186.765625 196.960938 C 184.867188 196.414062 183.039062 197.472656 181.25 197.984375 C 179.207031 198.640625 176.613281 199.1875 175.734375 201.414062 Z M 182.125 208.5 C 183.660156 207.917969 185.230469 207.367188 186.800781 206.785156 C 186.289062 205.359375 185.925781 203.898438 185.523438 202.4375 C 183.878906 202.949219 182.238281 203.535156 180.59375 204.082031 C 181.105469 205.578125 181.578125 207.039062 182.125 208.5 Z M 182.125 208.5 " fill-opacity="1" fill-rule="nonzero"/></svg>